<?xml version="1.0" standalone="no"?><!DOCTYPE svg PUBLIC "-//W3C//DTD SVG 1.1//EN" "http://www.w3.org/Graphics/SVG/1.1/DTD/svg11.dtd"><svg t="1561817689948" class="icon" viewBox="0 0 1024 1024" version="1.1" xmlns="http://www.w3.org/2000/svg" p-id="2711" xmlns:xlink="http://www.w3.org/1999/xlink" width="200" height="200"><defs><style type="text/css"></style></defs><path d="M956.416 399.36c-108.032-146.432-266.752-239.616-444.416-239.616S176.64 252.928 67.584 399.36c-48.128 64.512-48.128 160.768 0 225.28 109.056 146.432 267.776 239.104 444.416 239.104 177.152 0 335.36-92.672 444.416-239.104 47.616-64.512 47.616-160.768 0-225.28z m-443.904 336.896c-123.392 0-224.256-100.352-224.256-224.256S389.12 287.744 512.512 287.744s224.256 100.352 224.256 224.256-100.864 224.256-224.256 224.256z m0-384c-88.064 0-159.744 71.68-159.744 159.744s71.68 159.744 159.744 159.744 159.744-71.68 159.744-159.744-71.168-159.744-159.744-159.744z" p-id="2712"></path></svg>