<?xml version="1.0" standalone="no"?><!DOCTYPE svg PUBLIC "-//W3C//DTD SVG 1.1//EN" "http://www.w3.org/Graphics/SVG/1.1/DTD/svg11.dtd"><svg t="1561796970380" class="icon" viewBox="0 0 1024 1024" version="1.1" xmlns="http://www.w3.org/2000/svg" p-id="1540" xmlns:xlink="http://www.w3.org/1999/xlink" width="200" height="200"><defs><style type="text/css"></style></defs><path d="M323.235 826.955h-53.296c-9.247 0-16.791 7.544-16.791 16.792v53.295c0 9.247 7.544 16.791 16.791 16.791h53.296c9.247 0 16.791-7.544 16.791-16.791v-53.295c0-9.248-7.544-16.792-16.791-16.792z m0-402.025h-53.296c-9.247 0-16.791 7.544-16.791 16.791v53.295c0 9.248 7.544 16.792 16.791 16.792h53.296c9.247 0 16.791-7.544 16.791-16.792v-53.295c0-9.247-7.544-16.791-16.791-16.791z m0 134.09h-53.296c-9.247 0-16.791 7.543-16.791 16.79v53.053c0 9.247 7.544 16.791 16.791 16.791h53.296c9.247 0 16.791-7.544 16.791-16.791v-53.296c0-9.247-7.544-16.548-16.791-16.548z m0 133.845h-53.296c-9.247 0-16.791 7.544-16.791 16.792v53.295c0 9.248 7.544 16.792 16.791 16.792h53.296c9.247 0 16.791-7.544 16.791-16.792v-53.295c0-9.248-7.544-16.792-16.791-16.792z m0-402.025h-53.296c-9.247 0-16.791 7.544-16.791 16.792v53.295c0 9.247 7.544 16.791 16.791 16.791h53.296c9.247 0 16.791-7.544 16.791-16.791v-53.295c0-9.248-7.544-16.792-16.791-16.792z m637.1 710.353H63.08c-9.248 0-16.792-7.544-16.792-16.792v-54.512c0-9.247 7.544-16.791 16.792-16.791h50.375V233.467c0-18.982 11.194-36.017 28.716-43.561L439.308 17.853c14.601-6.328 31.393-4.868 44.778 3.893 13.384 8.761 21.172 23.606 21.172 39.424v851.684h53.781v-775.09c0-17.036 9.005-32.61 23.606-40.885 14.601-8.517 32.853-8.274 47.455 0.244l256.498 149.42c14.601 8.518 23.362 24.093 23.362 40.884v625.914h50.618c9.248 0 16.792 7.544 16.792 16.791v54.269c-0.244 9.248-7.788 16.792-17.035 16.792z m-200.77-437.005H706.27c-9.247 0-16.791 7.544-16.791 16.792v53.052c0 9.247 7.544 16.791 16.791 16.791h53.295c9.248 0 16.792-7.544 16.792-16.791v-53.295c0-9.248-7.544-16.549-16.792-16.549z m0-268.179H706.27c-9.247 0-16.791 7.544-16.791 16.792v53.295c0 9.248 7.544 16.792 16.791 16.792h53.295c9.248 0 16.792-7.544 16.792-16.792v-53.295c0-9.248-7.544-16.792-16.792-16.792z m0 402.026H706.27c-9.247 0-16.791 7.544-16.791 16.791v53.295c0 9.248 7.544 16.792 16.791 16.792h53.295c9.248 0 16.792-7.544 16.792-16.792v-53.295c0-9.247-7.544-16.791-16.792-16.791z m0 134.09H706.27c-9.247 0-16.791 7.543-16.791 16.79v53.296c0 9.247 7.544 16.791 16.791 16.791h53.295c9.248 0 16.792-7.544 16.792-16.791v-53.295c0-9.248-7.544-16.792-16.792-16.792z m0-402.026H706.27c-9.247 0-16.791 7.544-16.791 16.791v53.296c0 9.247 7.544 16.791 16.791 16.791h53.295c9.248 0 16.792-7.544 16.792-16.791V446.89c0-9.247-7.544-16.791-16.792-16.791z" p-id="1541"></path></svg>