<?xml version="1.0" standalone="no"?><!DOCTYPE svg PUBLIC "-//W3C//DTD SVG 1.1//EN" "http://www.w3.org/Graphics/SVG/1.1/DTD/svg11.dtd"><svg t="1561817425063" class="icon" viewBox="0 0 1024 1024" version="1.1" xmlns="http://www.w3.org/2000/svg" p-id="2274" xmlns:xlink="http://www.w3.org/1999/xlink" width="200" height="200"><defs><style type="text/css"></style></defs><path d="M116.053333 296.96V163.84h409.6c75.093333 0 133.12 61.44 133.12 133.12M812.373333 296.96H116.053333v471.04c0 51.2 40.96 95.573333 95.573334 95.573333h600.746666c51.2 0 95.573333-40.96 95.573334-95.573333v-375.466667c0-54.613333-44.373333-95.573333-95.573334-95.573333z m-20.48 416.426667H361.813333c-23.893333 0-40.96-20.48-40.96-40.96s20.48-40.96 40.96-40.96h430.08c23.893333 0 40.96 20.48 40.96 40.96s-17.066667 40.96-40.96 40.96z m0-187.733334H361.813333c-23.893333 0-40.96-20.48-40.96-40.96S341.333333 443.733333 361.813333 443.733333h430.08c23.893333 0 40.96 20.48 40.96 40.96s-17.066667 40.96-40.96 40.96z" fill="" p-id="2275"></path><path d="M249.173333 467.626667m-27.306666 0a27.306667 27.306667 0 1 0 54.613333 0 27.306667 27.306667 0 1 0-54.613333 0Z" fill="" p-id="2276"></path></svg>